<?xml version="1.0" encoding="UTF-8" standalone="no"?>
<!-- Generator: Adobe Illustrator 15.0.0, SVG Export Plug-In . SVG Version: 6.00 Build 0)  -->

<svg
   xmlns:dc="http://purl.org/dc/elements/1.1/"
   xmlns:cc="http://creativecommons.org/ns#"
   xmlns:rdf="http://www.w3.org/1999/02/22-rdf-syntax-ns#"
   xmlns:svg="http://www.w3.org/2000/svg"
   xmlns="http://www.w3.org/2000/svg"
   xmlns:sodipodi="http://sodipodi.sourceforge.net/DTD/sodipodi-0.dtd"
   xmlns:inkscape="http://www.inkscape.org/namespaces/inkscape"
   version="1.1"
   id="Layer_1"
   x="0px"
   y="0px"
   width="54.428px"
   height="42.309px"
   viewBox="0 0 54.428 42.309"
   style="enable-background:new 0 0 54.428 42.309;"
   xml:space="preserve"
   inkscape:version="0.91 r13725"
   sodipodi:docname="sw-11.svg"><metadata
     id="metadata34"><rdf:RDF><cc:Work
         rdf:about=""><dc:format>image/svg+xml</dc:format><dc:type
           rdf:resource="http://purl.org/dc/dcmitype/StillImage" /></cc:Work></rdf:RDF></metadata><defs
     id="defs32" /><sodipodi:namedview
     pagecolor="#ffffff"
     bordercolor="#666666"
     borderopacity="1"
     objecttolerance="10"
     gridtolerance="10"
     guidetolerance="10"
     inkscape:pageopacity="0"
     inkscape:pageshadow="2"
     inkscape:window-width="1366"
     inkscape:window-height="705"
     id="namedview30"
     showgrid="false"
     inkscape:zoom="5.5780097"
     inkscape:cx="27.214001"
     inkscape:cy="21.154499"
     inkscape:window-x="-8"
     inkscape:window-y="-8"
     inkscape:window-maximized="1"
     inkscape:current-layer="Layer_1" /><path
     style="fill:#83a5b3;fill-opacity:1;stroke:none;stroke-width:0.1;stroke-miterlimit:4;stroke-dasharray:none;stroke-opacity:1"
     d="m 14.215303,40.567688 c -1.503836,-1.322764 -2.274215,-4.017449 -1.695556,-5.930804 0.292872,-0.968411 0.778086,-1.445084 1.65595,-1.626938 0.460079,-0.09526 0.697226,-0.04701 1.038673,0.211021 0.67458,0.50999 0.86535,0.945112 0.957743,2.184795 0.108287,1.453774 0.501319,2.137703 1.366994,2.379454 2.01185,0.56116 2.088777,0.450698 4.12449,-5.942432 2.065828,-6.488108 2.980067,-10.085829 2.590619,-10.196189 -0.149908,-0.04229 -1.183598,0.418338 -2.297148,1.023996 -1.582016,0.860466 -2.173995,1.084266 -2.707954,1.023665 -0.662335,-0.07498 -0.716302,-0.141538 -1.750938,-2.154927 -0.642988,-1.25115 -1.30817,-2.268838 -1.672525,-2.558899 -0.843115,-0.671212 -2.529415,-1.118284 -3.489024,-0.924972 -0.780672,0.157213 -2.6883143,1.200272 -3.2549663,1.779719 -0.427693,0.437325 -1.691704,0.627039 -2.2014452,0.330422 C 6.6534636,20.033465 6.3333172,19.674457 6.1688144,19.36748 5.8964968,18.859284 5.914169,18.662249 6.3661848,17.167625 8.4343997,10.328922 14.702133,4.746991 22.29925,2.9779604 c 1.624512,-0.3782753 4.9898,-0.5636572 6.789599,-0.3740294 0.723256,0.076224 1.401451,0.06463 1.507113,-0.025686 0.105828,-0.090357 0.275176,-0.4343562 0.376604,-0.7645011 0.247286,-0.8060095 1.328128,-1.42278803 2.105947,-1.20242248 1.174521,0.33276715 1.712917,1.40404368 1.334504,2.65526848 -0.100965,0.3342838 -0.0012,0.4870211 0.49568,0.7646743 3.816768,2.1292331 5.102,3.0763325 7.024883,5.1767225 4.675846,5.1074423 6.518194,12.2776443 4.862214,18.9232033 l -0.502097,2.015164 -0.726007,0.378235 c -0.559665,0.291552 -0.892,0.331242 -1.450174,0.173101 -0.620219,-0.175749 -0.782721,-0.333765 -1.132541,-1.100974 -1.580763,-3.466905 -1.957366,-3.876525 -3.976756,-4.325442 -1.509935,-0.335709 -2.461502,-0.06292 -4.259481,1.220243 -1.312011,0.93639 -2.169162,1.165134 -2.859807,0.763234 -0.238851,-0.139046 -0.791927,-0.975502 -1.22905,-1.858897 -0.963444,-1.947203 -1.500278,-2.681186 -1.827538,-2.49867 -0.145768,0.08142 -1.218056,3.198527 -2.820016,8.198029 -2.509732,7.832306 -2.603152,8.086148 -3.2138,8.731048 -0.860144,0.908249 -2.170517,1.696521 -3.323198,1.999152 -0.840173,0.220583 -1.191219,0.195243 -2.76665,-0.199469 -1.527391,-0.382715 -1.910199,-0.544768 -2.493328,-1.058142 z m 9.374699,-22.76913 c 3.165247,-0.560962 6.124797,0.336469 8.455267,2.563809 0.499741,0.477664 1.091145,1.04284 1.314245,1.25599 0.382842,0.365848 0.531652,0.359469 2.651103,-0.113126 l 2.245487,-0.500754 2.480128,0.668956 c 1.364067,0.368012 2.547355,0.631575 2.629478,0.585786 C 43.59753,22.129972 43.082747,19.58489 42.470952,17.835786 41.0342,13.727992 38.803956,10.90961 35.276423,8.7439276 33.734157,7.7970389 28.86791,6.4282144 26.969164,6.4080478 c -2.954405,-0.032675 -6.15595,0.7885896 -8.869536,2.2751847 -1.590416,0.8712838 -2.489457,1.5765955 -4.079245,3.2001975 -1.875985,1.915928 -1.951858,1.702058 0.891678,2.512218 2.779797,0.791118 3.565725,1.273131 5.070823,3.103714 l 0.812978,0.988753 0.850213,-0.24747 c 0.467623,-0.136225 1.342284,-0.334722 1.943726,-0.441293 z"
     id="path4182"
     inkscape:connector-curvature="0"
     inkscape:transform-center-x="-0.42170054"
     inkscape:transform-center-y="-0.63255656" /></svg>